<?xml version="1.0" encoding="UTF-8"?>
<svg width="32" height="32" viewBox="0 0 32 32" fill="none" xmlns="http://www.w3.org/2000/svg">
  <path d="M22 8C22 8 26 5 28.5 8.5C31 12 29.5 17.5 26 20.5C22.5 23.5 18 26 16 26C14 26 9.5 23.5 6 20.5C2.5 17.5 1 12 3.5 8.5C6 5 10 8 10 8C10 8 12 5 16 5C20 5 22 8 22 8Z" fill="#FFFFFF" stroke="#000000" stroke-width="1"/>
  <path d="M16 11C16 11, 6 12, 8 20" stroke="#000000" stroke-width="1" stroke-linecap="round"/>
  <path d="M12 14C12 14, 15 18, 16 23" stroke="#000000" stroke-width="1" stroke-linecap="round"/>
  <path d="M20 14C20 14, 17 18, 16 23" stroke="#000000" stroke-width="1" stroke-linecap="round"/>
  <path d="M16 11C16 11, 26 12, 24 20" stroke="#000000" stroke-width="1" stroke-linecap="round"/>
  <circle cx="14" cy="10" r="1" fill="#000000"/>
  <circle cx="18" cy="10" r="1" fill="#000000"/>
  <path d="M15 12C15 12, 16 13, 17 12" stroke="#FBB040" stroke-width="1" stroke-linecap="round"/>
</svg>
