<?xml version="1.0" encoding="UTF-8"?>
<svg width="120" height="120" viewBox="0 0 120 120" fill="none" xmlns="http://www.w3.org/2000/svg">
  <path d="M80.5 30C80.5 30 95.5 20 105 32C114.5 44 109 66 96 77C83 88 67 97 60 97C53 97 37 88 24 77C11 66 5.5 44 15 32C24.5 20 39.5 30 39.5 30C39.5 30 44.5 20 60 20C75.5 20 80.5 30 80.5 30Z" fill="#FFFFFF" stroke="#000000" stroke-width="2"/>
  <path d="M60 40C60 40, 20 45, 30 75" stroke="#000000" stroke-width="2" stroke-linecap="round"/>
  <path d="M40 50C40 50, 55 65, 60 85" stroke="#000000" stroke-width="2" stroke-linecap="round"/>
  <path d="M80 50C80 50, 65 65, 60 85" stroke="#000000" stroke-width="2" stroke-linecap="round"/>
  <path d="M60 40C60 40, 100 45, 90 75" stroke="#000000" stroke-width="2" stroke-linecap="round"/>
  <path d="M40 30C40 30, 60 15, 80 30" stroke="#000000" stroke-width="2" stroke-linecap="round"/>
  <path d="M50 95C50 95, 60 110, 70 95" stroke="#000000" stroke-width="2" stroke-linecap="round"/>
  <path d="M30 75L35 80" stroke="#FBB040" stroke-width="2" stroke-linecap="round"/>
  <path d="M90 75L85 80" stroke="#FBB040" stroke-width="2" stroke-linecap="round"/>
  <circle cx="52" cy="35" r="2" fill="#000000"/>
  <circle cx="68" cy="35" r="2" fill="#000000"/>
  <path d="M57 42C57 42, 60 44, 63 42" stroke="#FBB040" stroke-width="2" stroke-linecap="round"/>
</svg>
